<?xml version="1.0" encoding="utf-8"?>
<!-- Generator: Adobe Illustrator 23.1.0, SVG Export Plug-In . SVG Version: 6.00 Build 0)  -->
<svg version="1.1" id="Calque_1" xmlns="http://www.w3.org/2000/svg" xmlns:xlink="http://www.w3.org/1999/xlink" x="0px" y="0px"
	 viewBox="0 0 75.1 103.8" style="enable-background:new 0 0 75.1 103.8;" xml:space="preserve">
<style type="text/css">
	.st0{fill:#FFFFFF;}
	.st1{fill:#24472E;}
	.st2{fill:#24472E;stroke:#24472E;stroke-width:0.5;stroke-miterlimit:10;}
</style>
<circle class="st0" cx="37.8" cy="38.4" r="30.5"/>
<path class="st1" d="M37.5,2C17.4,2,1.1,18.3,1.1,38.4c0,15.8,10.1,29.3,24.1,34.3L37.5,102l12.3-29.3c14.1-5,24.1-18.5,24.1-34.3
	C73.9,18.3,57.6,2,37.5,2z M37.5,65C22.9,65,11,53.1,11,38.4s11.9-26.5,26.5-26.5C52.2,11.9,64,23.8,64,38.4S52.2,65,37.5,65z"/>
<path class="st2" d="M51.8,27.3c-3.9,0-7.1,3.2-7.1,7.1c-0.2,0-0.3,0-0.5,0c0,0,0,0,0,0c0-3.9-3.2-7.1-7.1-7.1s-7.1,3.2-7.1,7.1
	c-0.2,0-0.3,0-0.5,0c0,0,0,0,0,0c0-3.9-3.2-7.1-7.1-7.1s-7.1,3.2-7.1,7.1s3.2,7.1,7.1,7.1c0.2,0,0.3,0,0.5,0c0,0,0,0,0,0
	c0,3.9,3.2,7.1,7.1,7.1s7.1-3.2,7.1-7.1c0.2,0,0.3,0,0.5,0c0,0,0,0,0,0c0,3.9,3.2,7.1,7.1,7.1s7.1-3.2,7.1-7.1
	c3.9,0,7.1-3.2,7.1-7.1S55.7,27.3,51.8,27.3z M22.2,40.3c-3.2,0-5.9-2.6-5.9-5.9c0-3.2,2.6-5.9,5.9-5.9s5.9,2.6,5.9,5.9
	c0,0.1,0,0.2,0,0.2c-2.7,0.7-4.7,2.9-5.2,5.6C22.7,40.3,22.4,40.3,22.2,40.3z M27.9,36.1c-0.5,1.8-1.9,3.2-3.6,3.9
	C24.8,38.1,26.1,36.7,27.9,36.1z M35.7,41.6c0,3.2-2.6,5.9-5.9,5.9S24,44.8,24,41.6c0-0.1,0-0.2,0-0.2c2.7-0.7,4.7-2.9,5.2-5.6
	c0.2,0,0.4,0,0.6,0c0,0,0.1,0,0.1,0c0.5,2.9,2.8,5.2,5.7,5.7C35.7,41.5,35.7,41.5,35.7,41.6z M31.3,35.9c2.1,0.5,3.7,2.1,4.2,4.2
	C33.5,39.6,31.9,38,31.3,35.9z M37,40.3c0,0-0.1,0-0.1,0c-0.5-2.9-2.8-5.2-5.7-5.7c0,0,0-0.1,0-0.1c0-3.2,2.6-5.9,5.9-5.9
	s5.9,2.6,5.9,5.9c0,0.1,0,0.2,0,0.2c-2.7,0.7-4.7,2.9-5.2,5.6C37.4,40.3,37.2,40.3,37,40.3z M42.6,36.1c-0.5,1.8-1.9,3.2-3.6,3.9
	C39.6,38.1,40.9,36.7,42.6,36.1z M50.5,41.6c0,3.2-2.6,5.9-5.9,5.9c-3.2,0-5.9-2.6-5.9-5.9c0-0.1,0-0.2,0-0.2
	c2.7-0.7,4.7-2.9,5.2-5.6c0.2,0,0.4,0,0.6,0c0,0,0.1,0,0.1,0c0.5,2.9,2.8,5.2,5.7,5.7C50.5,41.5,50.5,41.5,50.5,41.6z M46.1,35.9
	c2.1,0.5,3.7,2.1,4.2,4.2C48.3,39.6,46.7,38,46.1,35.9z M51.8,40.3c0,0-0.1,0-0.1,0c-0.5-2.9-2.8-5.2-5.7-5.7c0,0,0-0.1,0-0.1
	c0-3.2,2.6-5.9,5.9-5.9c3.2,0,5.9,2.6,5.9,5.9C57.7,37.7,55,40.3,51.8,40.3z"/>
</svg>
