<?xml version="1.0" encoding="utf-8"?>
<!-- Generator: Adobe Illustrator 23.1.0, SVG Export Plug-In . SVG Version: 6.00 Build 0)  -->
<svg version="1.1" id="Calque_1" xmlns="http://www.w3.org/2000/svg" xmlns:xlink="http://www.w3.org/1999/xlink" x="0px" y="0px"
	 viewBox="0 0 100 125" style="enable-background:new 0 0 100 125;" xml:space="preserve">
<style type="text/css">
	.st0{fill:#FFFFFF;}
	.st1{fill:#427742;}
</style>
<circle class="st0" cx="51.3" cy="46.1" r="40.1"/>
<path class="st1" d="M83.1,15.2C74.6,6.8,63.3,2.1,51.3,2.1S28.1,6.8,19.6,15.2S6.4,35,6.4,47c0,8.1,1.9,14.9,5.9,21.4
	c3.6,5.7,8.3,10.5,13.4,15.5C35,93.1,45.5,103.6,50,123c0.1,0.6,0.7,1,1.3,1s1.2-0.4,1.3-1c4.5-19.4,15.1-29.9,24.3-39.1
	c5.1-5,9.8-9.7,13.4-15.5c4-6.5,5.9-13.3,5.9-21.4C96.2,35,91.6,23.7,83.1,15.2z M51.3,82c-19.3,0-35-15.7-35-35s15.7-35,35-35
	s35,15.7,35,35S70.6,82,51.3,82z"/>
<path class="st1" d="M71.8,42.9l-19.1-9c-0.3-0.1-0.6-0.2-0.9-0.3v-6c1.1-0.4,2.2-0.4,3.2-0.2c0.1,0,0.3,0,0.4,0.1
	c1.2,0.3,2.4,0.7,3.6,0.9c0.1,0,0.3,0,0.4,0.1c1.3,0.2,2.7,0.2,4-0.5c0-2,0-4,0-6.1c-1.3,0.7-2.7,0.8-4,0.5c-0.1,0-0.3,0-0.4-0.1
	c-1.2-0.3-2.4-0.7-3.6-0.9c-0.1,0-0.3,0-0.4-0.1c-1.3-0.2-2.7-0.2-4,0.5c0,0.2,0,0.3,0,0.5V28v5.7c-0.4,0-0.7,0.1-1,0.3l-19.1,9
	c-0.2,0.1-0.8,0.4-0.6,0.9c0.1,0.5,0.7,0.5,0.9,0.5h3.6v19.8h-1c-0.9,0-1.6,0.7-1.6,1.6v3.7c0,0.9,0.7,1.6,1.6,1.6h35.1
	c0.9,0,1.6-0.7,1.6-1.6v-3.7c0-0.9-0.7-1.6-1.6-1.6h-1V44.2h3.6c0.2,0,0.8,0,0.9-0.5C72.5,43.3,71.9,43,71.8,42.9z M55.4,21.8
	c1.2,0.3,2.4,0.7,3.6,0.9c0,1.8,0,3.5,0,5.3c-1.2-0.3-2.4-0.7-3.6-0.9C55.4,25.4,55.4,23.6,55.4,21.8z M44.1,64.1h-4.3V44.2h4.3
	V64.1z M53.5,64.1h-4.3V44.2h4.3V64.1z M62.8,64.1h-4.3V44.2h4.3V64.1z"/>
</svg>
