<?xml version="1.0" encoding="utf-8"?>
<!-- Generator: Adobe Illustrator 23.1.0, SVG Export Plug-In . SVG Version: 6.00 Build 0)  -->
<svg version="1.1" id="Calque_1" xmlns="http://www.w3.org/2000/svg" xmlns:xlink="http://www.w3.org/1999/xlink" x="0px" y="0px"
	 viewBox="0 0 75.1 103.8" style="enable-background:new 0 0 75.1 103.8;" xml:space="preserve">
<style type="text/css">
	.st0{fill:#FFFFFF;}
	.st1{fill:#820404;}
</style>
<circle class="st0" cx="37.8" cy="38.4" r="30.5"/>
<g>
	<path class="st1" d="M37.5,2C17.4,2,1.1,18.3,1.1,38.4c0,15.8,10.1,29.3,24.1,34.3L37.5,102l12.3-29.3c14.1-5,24.1-18.5,24.1-34.3
		C73.9,18.3,57.6,2,37.5,2z M37.5,65C22.9,65,11,53.1,11,38.4s11.9-26.5,26.5-26.5C52.2,11.9,64,23.8,64,38.4S52.2,65,37.5,65z
		 M49.5,37.6l2.5-0.9v9.6c0,0-6.7,4.6-14.9,4.6s-14.9-4.6-14.9-4.6v-9.8L37.5,42l7.9-2.9c0.1,0.2,0.3,0.4,0.5,0.5
		c0.1,1.1,0.2,5.6,0.3,6.1c0,0.3,0.2,0.5,0.5,0.7l0.4-3.3l0.6,3.6c0.3,0,0.6,0,0.9,0c1.2-0.2,2.1-0.9,2-1.7
		c-0.1-0.6-1.3-5.3-1.5-6.1C49.4,38.7,49.6,38.1,49.5,37.6z M60.2,32.2l-11.3,4.1c-0.5-0.5-1.2-0.8-1.9-0.7
		c-0.7-3.4-6.5-5.5-8.2-5.5c-0.4-0.2-0.9-0.3-1.4-0.3c-1.1,0-2,0.5-2,1.2s0.9,1.2,2,1.2c0.5,0,1-0.1,1.4-0.3c1.7,0,6.4,2.5,6.6,4.7
		c-0.3,0.4-0.4,0.8-0.4,1.3l-7.5,2.8l-22.7-8.4l22.7-8.4L60.2,32.2z"/>
</g>
</svg>
