<?xml version="1.0" encoding="utf-8"?>
<!-- Generator: Adobe Illustrator 23.1.0, SVG Export Plug-In . SVG Version: 6.00 Build 0)  -->
<svg version="1.1"
	 id="Calque_1" xmlns:cc="http://creativecommons.org/ns#" xmlns:dc="http://purl.org/dc/elements/1.1/" xmlns:inkscape="http://www.inkscape.org/namespaces/inkscape" xmlns:rdf="http://www.w3.org/1999/02/22-rdf-syntax-ns#" xmlns:sodipodi="http://sodipodi.sourceforge.net/DTD/sodipodi-0.dtd" xmlns:svg="http://www.w3.org/2000/svg"
	 xmlns="http://www.w3.org/2000/svg" xmlns:xlink="http://www.w3.org/1999/xlink" x="0px" y="0px" viewBox="0 0 21.9 21.6"
	 style="enable-background:new 0 0 21.9 21.6;" xml:space="preserve">
<style type="text/css">
	.st0{fill:#AF3A92;}
</style>
<path class="st0" d="M11,0.9c-5.5,0-10,4.5-10,10c0,5.5,4.5,10,10,10s10-4.5,10-10C21,5.4,16.5,0.9,11,0.9z M11,2.4
	c4.7,0,8.5,3.8,8.5,8.5s-3.8,8.5-8.5,8.5s-8.5-3.8-8.5-8.5C2.5,6.2,6.3,2.4,11,2.4z M11.2,5.9c-0.1,0-0.3,0.1-0.4,0.2L7.7,9
	c-0.2,0.2-0.3,0.6,0,0.8c0.2,0.2,0.6,0.2,0.8,0l2.2-2.1v7.7c0,0.3,0.3,0.6,0.6,0.6c0.3,0,0.6-0.3,0.6-0.6V7.7L14,9.8
	c0.2,0.2,0.6,0.2,0.8,0c0.2-0.2,0.1-0.6,0-0.8l-3.2-3C11.5,5.9,11.4,5.9,11.2,5.9L11.2,5.9z"/>
</svg>
