<?xml version="1.0" encoding="utf-8"?>
<!-- Generator: Adobe Illustrator 23.1.0, SVG Export Plug-In . SVG Version: 6.00 Build 0)  -->
<svg version="1.1" id="Calque_1" xmlns="http://www.w3.org/2000/svg" xmlns:xlink="http://www.w3.org/1999/xlink" x="0px" y="0px"
	 viewBox="0 0 100 125" style="enable-background:new 0 0 100 125;" xml:space="preserve">
<style type="text/css">
	.st0{fill:#FFFFFF;}
	.st1{fill:#286270;}
</style>
<circle class="st0" cx="51.33" cy="46.12" r="40.11"/>
<path class="st1" d="M83.09,15.24C74.61,6.76,63.33,2.09,51.33,2.09c-12,0-23.28,4.67-31.76,13.15C11.09,23.72,6.42,35,6.42,47
	c0,8.11,1.87,14.9,5.9,21.39c3.55,5.73,8.32,10.46,13.36,15.46c9.3,9.23,19.85,19.7,24.35,39.11c0.14,0.61,0.68,1.04,1.3,1.04
	s1.16-0.43,1.3-1.04c4.5-19.4,15.05-29.87,24.35-39.11c5.05-5.01,9.81-9.74,13.36-15.46c4.03-6.48,5.9-13.28,5.9-21.39
	C96.24,35,91.57,23.72,83.09,15.24z M51.33,81.99c-19.3,0-34.99-15.69-34.99-34.99s15.7-35,34.99-35c19.29,0,35,15.7,35,35
	S70.62,81.99,51.33,81.99z"/>
<path class="st1" d="M71.75,42.92l-19.08-8.97c-0.25-0.13-0.57-0.22-0.91-0.26v-6.05c1.08-0.38,2.15-0.37,3.23-0.18
	c0.14,0.02,0.28,0.05,0.42,0.08c1.21,0.25,2.42,0.67,3.63,0.92c0.14,0.03,0.27,0.05,0.41,0.08c1.35,0.23,2.7,0.2,4.04-0.54
	c0-2.02,0-4.04,0-6.06c-1.35,0.74-2.7,0.77-4.04,0.54c-0.14-0.02-0.27-0.05-0.41-0.08c-1.21-0.25-2.42-0.67-3.63-0.92
	c-0.13-0.03-0.28-0.05-0.42-0.08c-1.35-0.23-2.69-0.21-4.03,0.53c0,0.17,0,0.33,0,0.5v5.56v5.69c-0.36,0.04-0.7,0.13-0.96,0.27
	L30.9,42.93c-0.18,0.1-0.75,0.39-0.64,0.86c0.11,0.45,0.72,0.45,0.92,0.45h3.62v19.81h-1.01c-0.89,0-1.61,0.73-1.61,1.61v3.7
	c0,0.89,0.72,1.61,1.61,1.61h35.09c0.89,0,1.61-0.72,1.61-1.61v-3.7c0-0.89-0.72-1.61-1.61-1.61h-1.01V44.24h3.62
	c0.2,0,0.81,0,0.92-0.45C72.52,43.32,71.95,43.03,71.75,42.92z M55.41,21.84c1.21,0.25,2.42,0.67,3.63,0.92c0,1.77,0,3.54,0,5.31
	c-1.21-0.25-2.42-0.66-3.63-0.91C55.41,25.39,55.41,23.61,55.41,21.84z M44.14,64.05h-4.31V44.24h4.31V64.05z M53.49,64.05h-4.31
	V44.24h4.31V64.05z M62.83,64.05h-4.32V44.24h4.32V64.05z"/>
</svg>
