<?xml version="1.0" encoding="utf-8"?>
<!-- Generator: Adobe Illustrator 23.1.0, SVG Export Plug-In . SVG Version: 6.00 Build 0)  -->
<svg version="1.1" id="Calque_1" xmlns="http://www.w3.org/2000/svg" xmlns:xlink="http://www.w3.org/1999/xlink" x="0px" y="0px"
	 viewBox="0 0 102.8 102.3" style="enable-background:new 0 0 102.8 102.3;" xml:space="preserve">
<style type="text/css">
	.st0{fill-rule:evenodd;clip-rule:evenodd;fill:#1F5266;}
	.st1{fill-rule:evenodd;clip-rule:evenodd;fill:#FAB900;}
	.st2{fill:#FFFFFF;}
	.st3{fill:#00004D;}
</style>
<g id="Group" transform="translate(303.202200, 200.954860)">
	<path id="Fill-3" class="st0" d="M-214.9-180.6c-1.7-2.1-3.6-4-5.6-5.7c-0.3-0.3-0.6-0.5-0.9-0.7c-1.2-1-2.4-1.9-3.7-2.7
		c-1-0.6-1.9-1.3-2.9-1.8c-7-4-15.1-6.3-23.8-6.3c-15.7,0-29.5,7.5-38.2,19.2c-0.2,0.3-0.5,0.6-0.7,0.9c-0.9,1.2-1.7,2.5-2.5,3.9
		c-0.2,0.3-0.4,0.7-0.6,1c-1.1,2-2.1,4.1-2.9,6.3c-0.4,1.1-0.8,2.2-1.1,3.3c-0.2,0.8-0.4,1.5-0.6,2.3c-0.8,3.5-1.2,7.1-1.2,10.8
		c0,3.7,0.4,7.3,1.2,10.8c0.2,0.8,0.4,1.5,0.6,2.3c0.3,1.1,0.7,2.2,1.1,3.3c0.8,2.2,1.8,4.3,2.9,6.3c0.2,0.3,0.4,0.7,0.6,1
		c0.8,1.3,1.6,2.6,2.5,3.9c0.2,0.3,0.4,0.6,0.7,0.9c8.7,11.6,22.6,19.2,38.2,19.2c0,0-9.1-8.1-17.3-19.5c-0.5-0.7-0.9-1.3-1.4-2
		c-1.9-2.7-3.6-5.6-5.2-8.6c-0.4-0.7-0.8-1.5-1.2-2.3c-0.7-1.5-1.4-3.1-2-4.6c-0.2-0.4-0.3-0.8-0.4-1.2c-0.3-0.8-0.6-1.6-0.8-2.4
		c-0.1-0.4-0.2-0.8-0.4-1.2c-1-3.6-1.6-7.2-1.6-10.8c0-4.9,1.3-9.5,3.7-13.6c1.4-2.4,3.2-4.7,5.2-6.7c5.5-5.3,13.1-8.6,21.5-8.6
		c10.5,0,19.7,5.2,25.2,12.9c0.5,0.8,1.1,1.6,1.5,2.4c0.9,1.5,1.6,3,2.1,4.7c0.1,0.3,0.2,0.6,0.3,0.9c0.4,1.1,0.6,2.3,0.8,3.5
		c0.3,1.5,0.4,3,0.4,4.6c0,4.8-1.1,9.6-2.8,14.4c-0.1,0.4-0.3,0.8-0.4,1.2c-0.5,1.2-1,2.3-1.5,3.5c-0.7,1.5-1.5,3-2.3,4.5
		c-0.4,0.7-0.8,1.5-1.3,2.2c-0.2,0.4-0.4,0.7-0.7,1.1c-0.4,0.7-0.9,1.4-1.3,2.1c-0.5,0.7-0.9,1.4-1.4,2.1c-0.2,0.3-0.5,0.7-0.7,1
		c-0.4,0.5-0.7,1-1.1,1.6c-0.2,0.3-0.4,0.5-0.6,0.8c-7.9,10.7-16.3,18.2-16.3,18.2c8.7,0,16.8-2.3,23.8-6.3c1-0.6,2-1.2,2.9-1.8
		c1.3-0.9,2.5-1.8,3.7-2.7c0.3-0.2,0.6-0.5,0.9-0.7c2-1.8,3.9-3.7,5.6-5.7c6.8-8.3,10.9-18.8,10.9-30.4
		C-204-161.7-208.1-172.3-214.9-180.6"/>
</g>
<g>
	<circle class="st1" cx="51.4" cy="50.7" r="48.9"/>
	<path class="st2" d="M51.4,2.8c26.5,0,47.9,21.5,47.9,47.9S77.9,98.7,51.4,98.7S3.5,77.2,3.5,50.7S25,2.8,51.4,2.8 M51.4,0.8
		C23.9,0.8,1.5,23.2,1.5,50.7s22.4,49.9,49.9,49.9s49.9-22.4,49.9-49.9S79,0.8,51.4,0.8L51.4,0.8z"/>
</g>
<g>
	<path class="st3" d="M56.8,85.3c-1.3-0.4-3.4-0.5-5.3,1c-1.8-1.5-4-1.5-5.3-1c-1.1,0.4-1.9,0.6-3.5,0.6c1.6,3.3,4.9,5.5,8.8,5.5
		s7.2-2.3,8.8-5.5C58.8,86.1,57.9,85.7,56.8,85.3z"/>
	<path class="st3" d="M51.6,3C25,3,3.5,24.5,3.5,51c0,22.8,15.8,41.8,37,46.7c-16.9-9-23.8-29.7-15.6-47.1
		c1.3,6.9,5.8,12.9,12.5,16.1c-8.7-20.3-2.3-44.3,15.7-57.5C49.5,21.5,55,32.4,66.6,40.8c13.3,9.6,13.9,29,2.1,39.5
		c4.6-1.1,9-3.7,12.3-7.6c-2,10.3-8.5,19.7-18.4,24.9c21.2-4.9,37.1-24.1,37.1-46.7C99.6,24.5,78.1,3,51.6,3z"/>
</g>
</svg>
