<?xml version="1.0" encoding="utf-8"?>
<!-- Generator: Adobe Illustrator 23.1.0, SVG Export Plug-In . SVG Version: 6.00 Build 0)  -->
<svg version="1.1" id="Calque_1" xmlns="http://www.w3.org/2000/svg" xmlns:xlink="http://www.w3.org/1999/xlink" x="0px" y="0px"
	 viewBox="0 0 96.9 100.3" style="enable-background:new 0 0 96.9 100.3;" xml:space="preserve">
<style type="text/css">
	.st0{fill-rule:evenodd;clip-rule:evenodd;fill:#FF5E72;}
	.st1{fill-rule:evenodd;clip-rule:evenodd;fill:#11BFDB;}
</style>
<g id="Group" transform="translate(303.202200, 200.954860)">
	<path id="Fill-3" class="st0" d="M-218-180.3c-1.7-2.1-3.6-4-5.6-5.7c-0.3-0.3-0.6-0.5-0.9-0.7c-1.2-1-2.4-1.9-3.7-2.7
		c-1-0.6-1.9-1.3-2.9-1.8c-7-4-15.1-6.3-23.8-6.3c-15.7,0-29.5,7.5-38.2,19.2c-0.2,0.3-0.5,0.6-0.7,0.9c-0.9,1.2-1.7,2.5-2.5,3.9
		c-0.2,0.3-0.4,0.7-0.6,1c-1.1,2-2.1,4.1-2.9,6.3c-0.4,1.1-0.8,2.2-1.1,3.3c-0.2,0.8-0.4,1.5-0.6,2.3c-0.8,3.5-1.2,7.1-1.2,10.8
		c0,3.7,0.4,7.3,1.2,10.8c0.2,0.8,0.4,1.5,0.6,2.3c0.3,1.1,0.7,2.2,1.1,3.3c0.8,2.2,1.8,4.3,2.9,6.3c0.2,0.3,0.4,0.7,0.6,1
		c0.8,1.3,1.6,2.6,2.5,3.9c0.2,0.3,0.4,0.6,0.7,0.9c8.7,11.6,22.6,19.2,38.2,19.2c0,0-9.1-8.1-17.3-19.5c-0.5-0.7-0.9-1.3-1.4-2
		c-1.9-2.7-3.6-5.6-5.2-8.6c-0.4-0.7-0.8-1.5-1.2-2.3c-0.7-1.5-1.4-3.1-2-4.6c-0.2-0.4-0.3-0.8-0.4-1.2c-0.3-0.8-0.6-1.6-0.8-2.4
		c-0.1-0.4-0.2-0.8-0.4-1.2c-1-3.6-1.6-7.2-1.6-10.8c0-4.9,1.3-9.5,3.7-13.6c1.4-2.4,3.2-4.7,5.2-6.7c5.5-5.3,13.1-8.6,21.5-8.6
		c10.5,0,19.7,5.2,25.2,12.9c0.5,0.8,1.1,1.6,1.5,2.4c0.9,1.5,1.6,3,2.1,4.7c0.1,0.3,0.2,0.6,0.3,0.9c0.4,1.1,0.6,2.3,0.8,3.5
		c0.3,1.5,0.4,3,0.4,4.6c0,4.8-1.1,9.6-2.8,14.4c-0.1,0.4-0.3,0.8-0.4,1.2c-0.5,1.2-1,2.3-1.5,3.5c-0.7,1.5-1.5,3-2.3,4.5
		c-0.4,0.7-0.8,1.5-1.3,2.2c-0.2,0.4-0.4,0.7-0.7,1.1c-0.4,0.7-0.9,1.4-1.3,2.1c-0.5,0.7-0.9,1.4-1.4,2.1c-0.2,0.3-0.5,0.7-0.7,1
		c-0.4,0.5-0.7,1-1.1,1.6c-0.2,0.3-0.4,0.5-0.6,0.8c-7.9,10.7-16.3,18.2-16.3,18.2c8.7,0,16.8-2.3,23.8-6.3c1-0.6,2-1.2,2.9-1.8
		c1.3-0.9,2.5-1.8,3.7-2.7c0.3-0.2,0.6-0.5,0.9-0.7c2-1.8,3.9-3.7,5.6-5.7c6.8-8.3,10.9-18.8,10.9-30.4
		C-207.1-161.4-211.2-172-218-180.3"/>
	<path id="Fill-5" class="st1" d="M-240.7-155.2c0,7.8-6.3,14.2-14.2,14.2c-7.8,0-14.2-6.3-14.2-14.2c0-7.8,6.3-14.2,14.2-14.2
		C-247-169.3-240.7-163-240.7-155.2"/>
</g>
</svg>
