<?xml version="1.0" encoding="utf-8"?>
<!-- Generator: Adobe Illustrator 23.1.0, SVG Export Plug-In . SVG Version: 6.00 Build 0)  -->
<svg version="1.1" id="Calque_1" xmlns="http://www.w3.org/2000/svg" xmlns:xlink="http://www.w3.org/1999/xlink" x="0px" y="0px"
	 viewBox="0 0 100 125" style="enable-background:new 0 0 100 125;" xml:space="preserve">
<style type="text/css">
	.st0{fill:#FFFFFF;}
	.st1{fill:#FF5E72;}
	.st2{fill-rule:evenodd;clip-rule:evenodd;fill:#1F5266;}
	.st3{fill-rule:evenodd;clip-rule:evenodd;fill:#FF5E72;}
	.st4{fill-rule:evenodd;clip-rule:evenodd;fill:#11BFDB;}
</style>
<circle class="st0" cx="51.3" cy="47.1" r="40.1"/>
<path class="st1" d="M83.1,15.2C74.6,6.8,63.3,2.1,51.3,2.1S28.1,6.8,19.6,15.2S6.4,35,6.4,47c0,8.1,1.9,14.9,5.9,21.4
	c3.6,5.7,8.3,10.5,13.4,15.5C35,93.1,45.5,103.6,50,123c0.1,0.6,0.7,1,1.3,1s1.2-0.4,1.3-1c4.5-19.4,15.1-29.9,24.3-39.1
	c5.1-5,9.8-9.7,13.4-15.5c4-6.5,5.9-13.3,5.9-21.4C96.2,35,91.6,23.7,83.1,15.2z M51.3,82c-19.3,0-35-15.7-35-35s15.7-35,35-35
	s35,15.7,35,35S70.6,82,51.3,82z"/>
<g id="Page-1">
	<g id="Paris2024-191104-TDJ-LOGO_COULEURS-FOND-BLANC" transform="translate(-303.000000, -200.000000)">
		<g id="Group" transform="translate(303.202200, 200.954860)">
			<path id="Fill-1" class="st2" d="M69.8,36.7H73v5c0,0.8,0.1,1.3,0.4,1.8c0.3,0.4,0.6,0.8,1,1c0.4,0.2,0.8,0.4,1.3,0.6
				c0.4,0.2,0.8,0.4,1.2,0.6l0.7,0.4v-5.2h3.1v11.6h-3.1v-1.1c0-0.7-0.2-1.3-0.5-1.7c-0.3-0.4-0.7-0.8-1.3-1.1
				c-0.5-0.3-1-0.5-1.6-0.7c-0.5-0.2-1.1-0.5-1.6-0.8c-0.5-0.3-1-0.6-1.4-1.1c-0.4-0.4-0.7-1-1-1.6c-0.3-0.7-0.4-1.5-0.4-2.5V36.7z
				 M77.1,40.5v4.8c-0.4-0.2-0.9-0.5-1.3-0.6c-0.4-0.2-0.8-0.4-1.2-0.6c-0.4-0.2-0.6-0.5-0.9-0.9c-0.2-0.4-0.3-0.9-0.3-1.5v-5.5
				h-4.1v5.7c0,1.1,0.1,2,0.4,2.7c0.3,0.7,0.7,1.3,1.1,1.8c0.5,0.5,1,0.8,1.5,1.1c0.6,0.3,1.1,0.6,1.7,0.8c0.6,0.2,1.1,0.5,1.5,0.7
				c0.5,0.3,0.8,0.6,1.1,0.9c0.3,0.4,0.4,0.8,0.4,1.4V53h4V40.5H77.1z"/>
			<path id="Fill-3" class="st3" d="M51.3,39.3c-0.3-0.4-0.6-0.7-1-1c-0.1,0-0.1-0.1-0.2-0.1c-0.2-0.2-0.4-0.3-0.6-0.5
				c-0.2-0.1-0.3-0.2-0.5-0.3c-1.2-0.7-2.7-1.1-4.2-1.1c-2.8,0-5.2,1.3-6.7,3.4c0,0.1-0.1,0.1-0.1,0.2c-0.2,0.2-0.3,0.4-0.4,0.7
				c0,0.1-0.1,0.1-0.1,0.2c-0.2,0.4-0.4,0.7-0.5,1.1c-0.1,0.2-0.1,0.4-0.2,0.6c0,0.1-0.1,0.3-0.1,0.4c-0.1,0.6-0.2,1.2-0.2,1.9
				c0,0.7,0.1,1.3,0.2,1.9c0,0.1,0.1,0.3,0.1,0.4c0.1,0.2,0.1,0.4,0.2,0.6c0.1,0.4,0.3,0.8,0.5,1.1c0,0.1,0.1,0.1,0.1,0.2
				c0.1,0.2,0.3,0.5,0.4,0.7c0,0.1,0.1,0.1,0.1,0.2c1.5,2,4,3.4,6.7,3.4c0,0-1.6-1.4-3-3.4c-0.1-0.1-0.2-0.2-0.2-0.4
				c-0.3-0.5-0.6-1-0.9-1.5c-0.1-0.1-0.1-0.3-0.2-0.4c-0.1-0.3-0.3-0.5-0.4-0.8c0-0.1-0.1-0.1-0.1-0.2c-0.1-0.1-0.1-0.3-0.1-0.4
				c0-0.1,0-0.1-0.1-0.2c-0.2-0.6-0.3-1.3-0.3-1.9c0-0.9,0.2-1.7,0.6-2.4c0.2-0.4,0.6-0.8,0.9-1.2c1-0.9,2.3-1.5,3.8-1.5
				c1.8,0,3.5,0.9,4.4,2.3c0.1,0.1,0.2,0.3,0.3,0.4c0.1,0.3,0.3,0.5,0.4,0.8c0,0.1,0,0.1,0.1,0.2c0.1,0.2,0.1,0.4,0.1,0.6
				c0,0.3,0.1,0.5,0.1,0.8c0,0.8-0.2,1.7-0.5,2.5c0,0.1-0.1,0.1-0.1,0.2c-0.1,0.2-0.2,0.4-0.3,0.6c-0.1,0.3-0.3,0.5-0.4,0.8
				c-0.1,0.1-0.1,0.3-0.2,0.4c0,0.1-0.1,0.1-0.1,0.2c-0.1,0.1-0.2,0.3-0.2,0.4c-0.1,0.1-0.2,0.2-0.2,0.4c0,0.1-0.1,0.1-0.1,0.2
				c-0.1,0.1-0.1,0.2-0.2,0.3c0,0-0.1,0.1-0.1,0.1c-1.4,1.9-2.9,3.2-2.9,3.2c1.5,0,2.9-0.4,4.2-1.1c0.2-0.1,0.3-0.2,0.5-0.3
				c0.2-0.2,0.4-0.3,0.6-0.5c0.1,0,0.1-0.1,0.2-0.1c0.4-0.3,0.7-0.6,1-1c1.2-1.5,1.9-3.3,1.9-5.3C53.2,42.6,52.5,40.7,51.3,39.3"/>
			<path id="Fill-5" class="st4" d="M47.3,43.7c0,1.4-1.1,2.5-2.5,2.5c-1.4,0-2.5-1.1-2.5-2.5c0-1.4,1.1-2.5,2.5-2.5
				C46.2,41.2,47.3,42.3,47.3,43.7"/>
			<path id="Fill-7" class="st2" d="M45.8,28.8l-2.9,0.4c0-0.5,0.2-0.9,0.5-1.3c0.4-0.4,1-0.6,1.9-0.7l-0.2-1.8
				c-1.1,0.1-1.9,0.5-2.5,1.2l-0.3-2.5l2.9-0.4L45,22l-2.9,0.4l-2,0.2l1,8.6l2-0.2l2.9-0.4L45.8,28.8z"/>
			<path id="Fill-9" class="st2" d="M50.8,23.6c0.4,0,0.8,0.1,1,0.3c0.2,0.2,0.4,0.5,0.4,0.8c0,0.3,0,0.5-0.2,0.7
				c-0.1,0.2-0.3,0.3-0.4,0.5c-0.2,0.1-0.4,0.3-0.6,0.4c-0.2,0.1-0.4,0.3-0.7,0.4c-0.1,0.1-0.2,0.2-0.3,0.3l-0.1-3.3L50.8,23.6z
				 M54.6,29.7c0-0.6-0.2-1.2-0.4-1.6c-0.3-0.5-0.7-0.8-1.2-1c-0.1,0-0.1-0.1-0.2-0.1c0.2-0.1,0.4-0.3,0.6-0.5
				c0.3-0.2,0.5-0.5,0.6-0.8c0.1-0.3,0.2-0.7,0.2-1.2c0-0.6-0.2-1-0.5-1.4c-0.3-0.4-0.7-0.7-1.2-0.9c-0.5-0.2-1.1-0.3-1.8-0.3
				l-0.8,0l-0.1,0l-0.6,0l-1.2,0l0.1,8.6l2,0l0-0.7c0-0.3,0-0.5,0.1-0.7c0.1-0.2,0.2-0.4,0.4-0.5c0.2-0.1,0.4-0.2,0.7-0.2
				c0.3,0,0.5,0,0.7,0.2c0.2,0.1,0.3,0.3,0.4,0.5c0.1,0.2,0.2,0.4,0.2,0.7l0,0.7l2.1,0L54.6,29.7z"/>
			<path id="Fill-11" class="st2" d="M59.9,23.9c0.4,0,0.8,0.2,1,0.4c0.2,0.2,0.3,0.5,0.3,0.9c0,0.3-0.1,0.5-0.2,0.6
				c-0.1,0.2-0.3,0.3-0.5,0.4c-0.2,0.1-0.4,0.2-0.6,0.3c-0.2,0.1-0.5,0.2-0.7,0.3c-0.1,0.1-0.2,0.1-0.3,0.2l0.3-3.3L59.9,23.9z
				 M61,30l-0.1,0.7l2,0.2l0.1-0.6c0.1-0.6,0-1.2-0.3-1.6c-0.2-0.5-0.6-0.9-1-1.2c-0.1,0-0.1-0.1-0.2-0.1c0.2-0.1,0.4-0.2,0.6-0.4
				c0.3-0.2,0.5-0.5,0.7-0.8c0.2-0.3,0.3-0.7,0.3-1.2c0-0.5-0.1-1-0.3-1.5c-0.3-0.4-0.6-0.8-1.1-1.1c-0.5-0.3-1.1-0.4-1.8-0.5
				l-0.8-0.1l-0.4,0l-0.4,0l-1.2-0.1l-0.7,8.6l2,0.2l0.1-0.7c0-0.3,0.1-0.5,0.2-0.7c0.1-0.2,0.3-0.3,0.5-0.4
				c0.2-0.1,0.4-0.1,0.7-0.1c0.3,0,0.5,0.1,0.7,0.2c0.2,0.1,0.3,0.3,0.4,0.5C61,29.5,61,29.8,61,30L61,30z"/>
			<path id="Fill-13" class="st2" d="M65.5,31.5l4.1,0.9l0.4-1.7L67.1,30c0.2-0.5,0.4-0.8,0.9-1c0.5-0.2,1.2-0.2,2-0.1l0.4-1.8
				c-1.1-0.2-2-0.1-2.7,0.4l0.5-2.4l2.9,0.6l0.4-1.7l-4-0.9l-0.8-0.2l-1.8,8.4L65.5,31.5z"/>
			<path id="Fill-15" class="st2" d="M31.9,62.5c-0.2,0.4-0.4,0.8-0.7,1c-0.3,0.3-0.7,0.4-1.1,0.5c-0.4,0.1-0.8,0-1.3-0.2l-0.1,0
				l1.7-4.4l0.1,0c0.4,0.2,0.8,0.4,1,0.7c0.3,0.3,0.4,0.7,0.5,1.1C32.1,61.7,32.1,62.1,31.9,62.5 M33.1,58.9
				c-0.5-0.6-1.3-1.1-2.2-1.4l-1.6-0.6l-3.2,8l1.6,0.6c0.9,0.3,1.7,0.5,2.6,0.4c0.8-0.1,1.5-0.3,2.2-0.8c0.6-0.5,1.1-1.1,1.4-1.9
				c0.3-0.8,0.4-1.6,0.2-2.3C34,60.2,33.6,59.5,33.1,58.9"/>
			<path id="Fill-17" class="st2" d="M37.6,59.6l-0.8-0.1L35.4,68l0.8,0.1l4.2,0.7l0.3-1.8l-3-0.5c0.1-0.5,0.4-0.9,0.8-1.1
				c0.5-0.2,1.2-0.3,2-0.1l0.3-1.8c-1.1-0.2-2,0-2.8,0.5l0.4-2.5l3,0.5l0.3-1.8L37.6,59.6z"/>
			<path id="Fill-19" class="st2" d="M46.3,62.5l1.6,0.1l-0.1,3.9c0,0.4-0.1,0.6-0.3,0.8c-0.2,0.2-0.5,0.3-0.9,0.2l-0.3,0l-0.1,1.9
				l0.3,0c1,0,1.8-0.2,2.4-0.7c0.6-0.5,0.9-1.2,0.9-2.2l0.2-5.7l-3.6-0.1L46.3,62.5z"/>
			<path id="Fill-21" class="st2" d="M54.9,67.6c0-0.5,0.2-0.9,0.6-1.2c0.4-0.3,1.1-0.5,2-0.6l-0.1-1.8c-1.2,0-2,0.4-2.6,1.1
				l-0.1-2.5l3.1-0.1l-0.1-1.8l-3.1,0.1l-0.9,0l-0.3,0l-0.8,0l0.3,8.8l0.8,0l4.3-0.2l-0.1-1.8L54.9,67.6z"/>
			<path id="Fill-23" class="st2" d="M66.3,59.5l-2,0.3l0.9,5.5c0,0.2,0,0.4,0,0.6c-0.1,0.2-0.2,0.4-0.3,0.5
				c-0.1,0.1-0.3,0.2-0.6,0.3c-0.2,0-0.4,0-0.6-0.1c-0.2-0.1-0.3-0.2-0.5-0.3c-0.1-0.2-0.2-0.4-0.2-0.6L62,60.3l-2,0.3l0.9,5.5
				c0.1,0.6,0.3,1.1,0.7,1.6c0.3,0.4,0.8,0.7,1.3,0.9c0.5,0.2,1.1,0.2,1.7,0.1c0.6-0.1,1.2-0.3,1.6-0.7s0.7-0.8,0.9-1.3
				c0.2-0.5,0.2-1.1,0.1-1.7L66.3,59.5z"/>
			<path id="Fill-25" class="st2" d="M76.8,63.8c-0.2-0.5-0.5-0.9-0.9-1.2c-0.3-0.2-0.6-0.3-0.9-0.4c0.1-0.3,0.3-0.5,0.3-0.8
				c0.1-0.5,0-1-0.2-1.5l-1.3-3l-1.9,0.8l1.3,3c0.1,0.2,0.1,0.4,0.1,0.6c0,0.2-0.1,0.4-0.2,0.5c-0.1,0.2-0.3,0.3-0.5,0.4
				c-0.2,0.1-0.4,0.1-0.6,0.1c-0.2,0-0.4-0.1-0.5-0.2c-0.1-0.1-0.3-0.3-0.4-0.5l-1.3-3l-1.9,0.8l1.3,3c0.2,0.5,0.5,0.9,0.9,1.2
				c0.2,0.2,0.5,0.3,0.8,0.4c-0.2,0.3-0.3,0.6-0.4,0.9c-0.1,0.5,0,1,0.2,1.5l0.4,1l1.9-0.8l-0.4-1c-0.1-0.2-0.1-0.4-0.1-0.6
				c0-0.2,0.1-0.4,0.2-0.5c0.1-0.2,0.3-0.3,0.5-0.4c0.2-0.1,0.4-0.1,0.7-0.1c0.2,0,0.4,0.1,0.5,0.2c0.2,0.1,0.3,0.3,0.4,0.5l0.4,1
				l1.9-0.8L76.8,63.8z"/>
			<path id="Fill-27" class="st2" d="M30.6,41.6c0-0.4-0.1-0.8-0.3-1.2c-0.2-0.4-0.5-0.6-0.9-0.8c-0.4-0.2-0.8-0.3-1.2-0.3
				c-0.4,0-0.9,0.1-1.2,0.3c-0.4,0.2-0.7,0.5-0.9,0.8c-0.2,0.4-0.3,0.8-0.3,1.2c0,0.4,0.1,0.8,0.2,1.1c0.1,0.2,0.2,0.4,0.4,0.6
				l-1.7,2.3c-1.3-1-1.9-2.3-1.9-3.9c0-1,0.2-1.8,0.7-2.5c0.5-0.7,1.1-1.3,2-1.8c0.8-0.4,1.8-0.7,2.8-0.7c1.1,0,2,0.2,2.8,0.6
				c0.8,0.4,1.5,1,1.9,1.7c0.5,0.7,0.7,1.5,0.7,2.4c0,0.4-0.1,0.8-0.2,1.2c-0.1,0.4-0.3,0.8-0.5,1.2c-0.3,0.5-0.6,1-1.1,1.6
				l-3.3,4.3h5.5v2.7h-11l6.5-8.6c0.4-0.5,0.6-0.9,0.8-1.2C30.5,42.3,30.6,42,30.6,41.6L30.6,41.6z M29.5,49.4l2.7-3.6
				c0.5-0.6,0.8-1.2,1.1-1.7c0.3-0.5,0.5-0.9,0.6-1.4c0.1-0.4,0.2-0.9,0.2-1.3c0-1-0.3-1.9-0.8-2.7c-0.5-0.8-1.2-1.4-2.1-1.9
				c-0.9-0.5-1.9-0.7-3-0.7c-1.1,0-2.1,0.2-3,0.7c-0.9,0.5-1.6,1.1-2.1,1.9c-0.5,0.8-0.8,1.7-0.8,2.8c0,1.8,0.8,3.3,2.5,4.5l2.2-2.9
				c-0.3-0.2-0.5-0.5-0.6-0.7c-0.1-0.3-0.2-0.6-0.2-0.9c0-0.4,0.1-0.7,0.3-1c0.2-0.3,0.4-0.5,0.7-0.7c0.3-0.2,0.7-0.2,1-0.2
				c0.4,0,0.7,0.1,1,0.2c0.3,0.2,0.5,0.4,0.7,0.7c0.2,0.3,0.3,0.6,0.3,0.9c0,0.3-0.1,0.7-0.2,1c-0.1,0.3-0.4,0.7-0.7,1.1L22.2,53
				h12.3v-3.6H29.5z"/>
			<path id="Fill-29" class="st2" d="M63.5,41.6c0-0.4-0.1-0.8-0.3-1.2c-0.2-0.4-0.5-0.6-0.9-0.8c-0.4-0.2-0.8-0.3-1.2-0.3
				c-0.4,0-0.9,0.1-1.2,0.3c-0.4,0.2-0.7,0.5-0.9,0.8c-0.2,0.4-0.3,0.8-0.3,1.2c0,0.4,0.1,0.8,0.2,1.1c0.1,0.2,0.2,0.4,0.4,0.6
				l-1.7,2.3c-1.3-1-1.9-2.3-1.9-3.9c0-1,0.2-1.8,0.7-2.6c0.5-0.7,1.1-1.3,1.9-1.8c0.8-0.4,1.8-0.7,2.8-0.7c1.1,0,2,0.2,2.8,0.6
				c0.8,0.4,1.5,1,1.9,1.7c0.5,0.7,0.7,1.5,0.7,2.4c0,0.4-0.1,0.8-0.2,1.2c-0.1,0.4-0.3,0.8-0.5,1.2c-0.3,0.5-0.6,1-1.1,1.6
				l-3.2,4.3H67v2.7H56.1l6.5-8.6c0.4-0.5,0.6-0.9,0.8-1.2C63.5,42.3,63.5,42,63.5,41.6L63.5,41.6z M62.4,49.4l2.7-3.6
				c0.5-0.6,0.8-1.2,1.1-1.7c0.3-0.5,0.5-0.9,0.6-1.4c0.1-0.4,0.2-0.9,0.2-1.3c0-1-0.3-1.9-0.8-2.7c-0.5-0.8-1.2-1.4-2.1-1.9
				c-0.9-0.5-1.9-0.7-3-0.7c-1.1,0-2.1,0.2-3,0.7c-0.9,0.5-1.6,1.1-2.1,1.9c-0.5,0.8-0.8,1.7-0.8,2.8c0,1.8,0.8,3.3,2.5,4.5l2.2-2.9
				c-0.3-0.2-0.5-0.5-0.6-0.7c-0.1-0.3-0.2-0.6-0.2-0.9c0-0.4,0.1-0.7,0.3-1c0.2-0.3,0.4-0.5,0.7-0.7c0.3-0.2,0.7-0.2,1-0.2
				c0.4,0,0.7,0.1,1,0.2c0.3,0.2,0.5,0.4,0.7,0.7c0.2,0.3,0.3,0.6,0.3,0.9c0,0.3-0.1,0.7-0.2,1c-0.1,0.3-0.4,0.7-0.7,1.1l-7,9.3
				h12.3v-3.6H62.4z"/>
			<path id="Fill-31" class="st2" d="M36.7,25.1c0.5-0.1,0.9-0.2,1.3-0.2L37.5,23c-0.4,0-0.8,0.1-1.3,0.2c-0.5,0.1-1,0.2-1.6,0.4
				c-0.5,0.1-1,0.3-1.5,0.5c-0.5,0.2-0.9,0.4-1.2,0.5l0.5,1.8c0.4-0.2,0.8-0.4,1.2-0.5c0.2-0.1,0.3-0.1,0.5-0.2l1.8,6.6l2-0.6
				l-1.8-6.6C36.4,25.2,36.5,25.1,36.7,25.1"/>
		</g>
	</g>
</g>
</svg>
